M48
;DRILL file {KiCad 4.0.7} date 01/21/18 13:29:13
;FORMAT={-:-/ absolute / inch / decimal}
FMAT,2
INCH,TZ
T1C0.028
T2C0.031
T3C0.035
T4C0.039
%
G90
G05
M72
T1
X0.875Y-1.575
X0.975Y-1.675
X1.05Y-1.125
X1.05Y-1.325
X1.075Y-1.575
X1.25Y-1.85
X1.25Y-2.05
X1.25Y-2.8
X1.25Y-3.
X1.35Y-1.85
X1.35Y-2.05
X1.475Y-1.85
X1.475Y-2.05
X1.5Y-2.8
X1.5Y-3.
X1.575Y-1.85
X1.575Y-2.05
X1.825Y-1.125
X1.825Y-1.325
X1.825Y-1.475
X1.825Y-1.675
X1.925Y-1.575
T2
X1.25Y-1.45
X1.25Y-1.75
X1.55Y-1.45
X1.55Y-1.75
T3
X1.1Y-2.
X1.1Y-2.4
X1.1Y-2.5
X1.1Y-2.9
X1.7Y-2.1
X1.7Y-2.5
X1.7Y-2.6
X1.7Y-3.
T4
X0.87Y-2.
X0.87Y-2.1
X0.87Y-2.2
X0.9Y-2.55
X0.9Y-2.65
X0.9Y-2.75
X1.225Y-1.125
X1.25Y-2.5
X1.325Y-1.125
X1.35Y-2.3
X1.425Y-1.125
X1.45Y-2.3
X1.525Y-1.125
X1.55Y-2.5
X1.625Y-1.125
X1.9Y-1.975
X1.9Y-2.075
X1.9Y-2.175
X1.9Y-2.7
X1.9Y-2.8
X1.9Y-2.9
T0
M30
